<?xml version="1.0" encoding="UTF-8"?>
<svg width="183px" height="95px" viewBox="0 0 183 95" version="1.1" xmlns="http://www.w3.org/2000/svg" xmlns:xlink="http://www.w3.org/1999/xlink">
    <!-- Generator: Sketch 48.2 (47327) - http://www.bohemiancoding.com/sketch -->
    <title>logo-snn</title>
    <desc>Created with Sketch.</desc>
    <defs>
        <polygon id="path-1" points="0 94.3674 182.61 94.3674 182.61 0.0004 0 0.0004"></polygon>
    </defs>
    <g id="Symbols" stroke="none" stroke-width="1" fill="none" fill-rule="evenodd">
        <g id="logo-snn">
            <g id="Page-1">
                <path d="M83.1941,76.5795 C82.4111,76.5795 81.9191,76.3995 81.6561,76.2535 L81.9331,75.5605 C82.2721,75.6855 82.6261,75.8035 83.1801,75.8035 C83.7761,75.8035 84.1581,75.6105 84.1581,75.1805 C84.1581,74.2165 81.8081,74.4735 81.8081,72.8245 C81.8081,71.9375 82.6121,71.5635 83.4441,71.5635 C84.2061,71.5635 84.5801,71.7285 84.8511,71.8475 L84.5731,72.5195 C84.2961,72.4215 83.9911,72.3255 83.4711,72.3255 C82.9651,72.3255 82.7091,72.4775 82.7091,72.8165 C82.7091,73.6425 85.1061,73.5715 85.1061,75.1375 C85.1061,76.1635 84.1791,76.5795 83.1941,76.5795 Z" id="Fill-1" fill="#FFFFFF"></path>
                <path d="M89.5403,76.5029 L89.0133,74.9019 L87.2193,74.9019 L86.6163,76.5029 L85.6803,76.5029 L87.5793,71.6039 L88.8483,71.6039 L90.5103,76.5029 L89.5403,76.5029 Z M88.4183,73.0399 L88.1753,72.1719 L87.8913,73.0399 L87.4753,74.2109 L88.7853,74.2109 L88.4183,73.0399 Z" id="Fill-3" fill="#FFFFFF"></path>
                <polygon id="Fill-5" fill="#FFFFFF" points="95.9622 76.5029 95.9622 73.9189 95.9972 73.0399 94.6322 76.5029 93.4822 76.5029 92.2832 72.9899 92.3452 73.8769 92.3452 76.5029 91.4092 76.5029 91.4092 71.6039 92.6372 71.6039 94.0912 75.7349 95.7412 71.6039 96.8982 71.6039 96.8982 76.5029"></polygon>
                <polygon id="Fill-7" fill="#FFFFFF" points="98.3777 76.5029 98.3777 71.6039 101.4057 71.6039 101.4057 72.3389 99.3137 72.3389 99.3137 73.6899 101.2537 73.6899 101.2537 74.3969 99.3137 74.3969 99.3137 75.7619 101.5657 75.7619 101.5657 76.5029"></polygon>
                <polygon id="Fill-9" fill="#FFFFFF" points="105.7283 76.5029 103.6283 72.7689 103.6633 73.3849 103.6633 76.5029 102.7283 76.5029 102.7283 71.6039 103.8993 71.6039 106.0533 75.4429 106.0123 74.8269 106.0123 71.6039 106.9403 71.6039 106.9403 76.5029"></polygon>
                <polygon id="Fill-11" fill="#FFFFFF" points="113.4798 76.5029 112.2538 76.5029 111.5818 74.5639 111.3388 73.7869 111.0688 74.5489 110.3208 76.5029 109.0658 76.5029 107.8948 71.6039 108.8098 71.6039 109.5438 74.8889 109.7588 75.9689 110.1538 74.8749 110.9788 72.8099 110.5628 71.6039 111.4978 71.6039 112.5648 74.9099 112.8768 75.9419 113.1478 74.8539 114.0408 71.6039 114.9278 71.6039"></polygon>
                <polygon id="Fill-13" fill="#FFFFFF" points="115.8196 76.5029 115.8196 71.6039 118.8476 71.6039 118.8476 72.3389 116.7556 72.3389 116.7556 73.6899 118.6956 73.6899 118.6956 74.3969 116.7556 74.3969 116.7556 75.7619 119.0076 75.7619 119.0076 76.5029"></polygon>
                <path d="M124.3138,76.5868 C123.6278,76.5518 123.1428,76.1978 122.6438,75.6018 L121.9158,74.7288 C121.8128,74.7368 121.7078,74.7428 121.5978,74.7428 L121.1128,74.7428 L121.1128,76.5028 L120.1698,76.5028 L120.1698,71.6038 L121.9578,71.6038 C123.0038,71.6038 123.7248,72.0968 123.7248,73.1638 C123.7248,73.7378 123.4468,74.2298 122.8658,74.5078 L123.4678,75.2008 C123.7658,75.5408 124.1198,75.7478 124.5148,75.8518 L124.3138,76.5868 Z M121.8058,72.3458 L121.1128,72.3458 L121.1128,74.0568 L121.6388,74.0568 C122.3598,74.0568 122.7538,73.7798 122.7538,73.1908 C122.7538,72.5958 122.4908,72.3458 121.8058,72.3458 Z" id="Fill-15" fill="#FFFFFF"></path>
                <polygon id="Fill-17" fill="#FFFFFF" points="128.324 76.5029 126.356 73.9879 126.356 76.5029 125.421 76.5029 125.421 71.6039 126.356 71.6039 126.356 73.8419 128.213 71.6039 129.405 71.6039 127.403 73.8839 129.53 76.5029"></polygon>
                <mask id="mask-2" fill="white">
                    <use xlink:href="#path-1"></use>
                </mask>
                <g id="Clip-20"></g>
                <polygon id="Fill-19" fill="#FFFFFF" mask="url(#mask-2)" points="130.387 76.5014 131.323 76.5014 131.323 71.6104 130.387 71.6104"></polygon>
                <polygon id="Fill-21" fill="#FFFFFF" mask="url(#mask-2)" points="135.8055 76.5029 133.7055 72.7689 133.7405 73.3849 133.7405 76.5029 132.8055 76.5029 132.8055 71.6039 133.9765 71.6039 136.1305 75.4429 136.0885 74.8269 136.0885 71.6039 137.0175 71.6039 137.0175 76.5029"></polygon>
                <path d="M140.806,76.5717 C139.177,76.5717 138.18,75.6707 138.18,74.0857 C138.18,72.4017 139.116,71.5497 140.826,71.5497 C141.596,71.5497 141.997,71.7007 142.275,71.8127 L142.018,72.5117 C141.665,72.4157 141.416,72.3307 140.82,72.3307 C139.884,72.3307 139.136,72.7957 139.136,74.0147 C139.136,75.2277 139.939,75.7827 140.931,75.7827 C141.139,75.7827 141.298,75.7687 141.429,75.7537 L141.429,74.4447 L142.365,74.4447 L142.365,76.3157 C141.867,76.4967 141.423,76.5717 140.806,76.5717" id="Fill-22" fill="#FFFFFF" mask="url(#mask-2)"></path>
                <path d="M144.8372,76.5795 C144.0542,76.5795 143.5622,76.3995 143.2992,76.2535 L143.5762,75.5605 C143.9152,75.6855 144.2692,75.8035 144.8232,75.8035 C145.4192,75.8035 145.8012,75.6105 145.8012,75.1805 C145.8012,74.2165 143.4512,74.4735 143.4512,72.8245 C143.4512,71.9375 144.2552,71.5635 145.0872,71.5635 C145.8492,71.5635 146.2232,71.7285 146.4942,71.8475 L146.2162,72.5195 C145.9392,72.4215 145.6342,72.3255 145.1142,72.3255 C144.6082,72.3255 144.3522,72.4775 144.3522,72.8165 C144.3522,73.6425 146.7492,73.5715 146.7492,75.1375 C146.7492,76.1635 145.8222,76.5795 144.8372,76.5795" id="Fill-23" fill="#FFFFFF" mask="url(#mask-2)"></path>
                <polygon id="Fill-24" fill="#FFFFFF" mask="url(#mask-2)" points="150.2059 76.5029 148.9379 76.5029 147.2609 71.6039 148.2449 71.6039 149.3879 75.1319 149.6029 75.8729 149.8459 75.1319 151.1759 71.6039 152.1109 71.6039"></polygon>
                <polygon id="Fill-25" fill="#FFFFFF" mask="url(#mask-2)" points="152.9485 76.5029 152.9485 71.6039 155.9765 71.6039 155.9765 72.3389 153.8835 72.3389 153.8835 73.6899 155.8235 73.6899 155.8235 74.3969 153.8835 74.3969 153.8835 75.7619 156.1355 75.7619 156.1355 76.5029"></polygon>
                <path d="M161.4417,76.5868 C160.7567,76.5518 160.2707,76.1978 159.7727,75.6018 L159.0447,74.7288 C158.9407,74.7368 158.8367,74.7428 158.7257,74.7428 L158.2407,74.7428 L158.2407,76.5028 L157.2987,76.5028 L157.2987,71.6038 L159.0857,71.6038 C160.1327,71.6038 160.8537,72.0968 160.8537,73.1638 C160.8537,73.7378 160.5757,74.2298 159.9937,74.5078 L160.5967,75.2008 C160.8947,75.5408 161.2477,75.7478 161.6427,75.8518 L161.4417,76.5868 Z M158.9337,72.3458 L158.2407,72.3458 L158.2407,74.0568 L158.7677,74.0568 C159.4887,74.0568 159.8827,73.7798 159.8827,73.1908 C159.8827,72.5958 159.6197,72.3458 158.9337,72.3458 Z" id="Fill-26" fill="#FFFFFF" mask="url(#mask-2)"></path>
                <path d="M164.3294,76.5029 L162.5484,76.5029 L162.5484,71.6039 L164.1214,71.6039 C165.2784,71.6039 165.8474,72.0279 165.8474,72.8999 C165.8474,73.4889 165.4384,73.7519 165.2854,73.8499 L165.2854,73.8709 C165.4934,73.9399 166.2004,74.1959 166.2004,75.0419 C166.2004,75.8999 165.7154,76.5029 164.3294,76.5029 M163.9554,72.3179 L163.4904,72.3179 L163.4904,73.6559 L164.0174,73.6559 C164.7304,73.6559 164.8904,73.3779 164.8904,72.9759 C164.8904,72.5119 164.6544,72.3179 163.9554,72.3179 M164.0384,74.3139 L163.4904,74.3139 L163.4904,75.7619 L164.1904,75.7619 C164.8904,75.7619 165.2444,75.6029 165.2444,75.0629 C165.2444,74.5009 164.8694,74.3139 164.0384,74.3139" id="Fill-27" fill="#FFFFFF" mask="url(#mask-2)"></path>
                <path d="M170.6614,76.5029 L170.1354,74.9019 L168.3404,74.9019 L167.7374,76.5029 L166.8014,76.5029 L168.7004,71.6039 L169.9684,71.6039 L171.6314,76.5029 L170.6614,76.5029 Z M169.5394,73.0399 L169.2964,72.1719 L169.0124,73.0399 L168.5964,74.2109 L169.9064,74.2109 L169.5394,73.0399 Z" id="Fill-28" fill="#FFFFFF" mask="url(#mask-2)"></path>
                <polygon id="Fill-29" fill="#FFFFFF" mask="url(#mask-2)" points="175.5301 76.5029 173.4311 72.7689 173.4651 73.3849 173.4651 76.5029 172.5301 76.5029 172.5301 71.6039 173.7011 71.6039 175.8561 75.4429 175.8141 74.8269 175.8141 71.6039 176.7431 71.6039 176.7431 76.5029"></polygon>
                <path d="M179.846,76.5029 L178.225,76.5029 L178.225,71.6039 L179.804,71.6039 C181.454,71.6039 182.61,72.3319 182.61,74.0359 C182.61,75.7349 181.564,76.5029 179.846,76.5029 M179.784,72.3469 L179.153,72.3469 L179.153,75.7619 L179.922,75.7619 C181.107,75.7619 181.675,75.1939 181.675,74.1049 C181.675,72.9209 181.017,72.3469 179.784,72.3469" id="Fill-30" fill="#FFFFFF" mask="url(#mask-2)"></path>
                <polygon id="Fill-31" fill="#FFFFFF" mask="url(#mask-2)" points="85.0311 84.1991 82.9311 80.4651 82.9661 81.0811 82.9661 84.1991 82.0311 84.1991 82.0311 79.3001 83.2021 79.3001 85.3561 83.1391 85.3141 82.5231 85.3141 79.3001 86.2431 79.3001 86.2431 84.1991"></polygon>
                <path d="M89.9002,84.2836 C88.2582,84.2836 87.4052,83.2856 87.4052,81.7396 C87.4052,80.1256 88.4242,79.2256 90.0322,79.2256 C91.7292,79.2256 92.5122,80.2576 92.5122,81.7536 C92.5122,83.3336 91.5762,84.2836 89.9002,84.2836 M89.9692,79.9796 C88.8462,79.9796 88.3552,80.7356 88.3552,81.7326 C88.3552,82.7096 88.8332,83.5276 89.9212,83.5276 C91.0852,83.5276 91.5562,82.7596 91.5562,81.7476 C91.5562,80.7356 91.0432,79.9796 89.9692,79.9796" id="Fill-32" fill="#FFFFFF" mask="url(#mask-2)"></path>
                <path d="M95.8431,84.2836 C94.2011,84.2836 93.3491,83.2856 93.3491,81.7396 C93.3491,80.1256 94.3671,79.2256 95.9751,79.2256 C97.6721,79.2256 98.4561,80.2576 98.4561,81.7536 C98.4561,83.3336 97.5201,84.2836 95.8431,84.2836 M95.9121,79.9796 C94.7901,79.9796 94.2981,80.7356 94.2981,81.7326 C94.2981,82.7096 94.7761,83.5276 95.8641,83.5276 C97.0281,83.5276 97.5001,82.7596 97.5001,81.7476 C97.5001,80.7356 96.9871,79.9796 95.9121,79.9796" id="Fill-33" fill="#FFFFFF" mask="url(#mask-2)"></path>
                <path d="M103.7547,84.2836 C103.0677,84.2486 102.5837,83.8946 102.0847,83.2986 L101.3567,82.4256 C101.2537,82.4326 101.1487,82.4396 101.0387,82.4396 L100.5527,82.4396 L100.5527,84.1996 L99.6107,84.1996 L99.6107,79.3006 L101.3987,79.3006 C102.4447,79.3006 103.1657,79.7936 103.1657,80.8606 C103.1657,81.4346 102.8877,81.9266 102.3057,82.2046 L102.9087,82.8976 C103.2067,83.2376 103.5597,83.4446 103.9547,83.5486 L103.7547,84.2836 Z M101.2457,80.0426 L100.5527,80.0426 L100.5527,81.7536 L101.0797,81.7536 C101.8007,81.7536 102.1947,81.4766 102.1947,80.8876 C102.1947,80.2926 101.9317,80.0426 101.2457,80.0426 Z" id="Fill-34" fill="#FFFFFF" mask="url(#mask-2)"></path>
                <path d="M106.4822,84.1991 L104.8612,84.1991 L104.8612,79.3001 L106.4412,79.3001 C108.0902,79.3001 109.2472,80.0271 109.2472,81.7321 C109.2472,83.4311 108.2012,84.1991 106.4822,84.1991 M106.4202,80.0431 L105.7902,80.0431 L105.7902,83.4581 L106.5582,83.4581 C107.7432,83.4581 108.3112,82.8901 108.3112,81.8011 C108.3112,80.6171 107.6532,80.0431 106.4202,80.0431" id="Fill-35" fill="#FFFFFF" mask="url(#mask-2)"></path>
                <polygon id="Fill-36" fill="#FFFFFF" mask="url(#mask-2)" points="109.988 82.5844 112.053 82.5844 112.053 81.8364 109.988 81.8364"></polygon>
                <polygon id="Fill-37" fill="#FFFFFF" mask="url(#mask-2)" points="116.1258 84.1991 114.0268 80.4651 114.0608 81.0811 114.0608 84.1991 113.1258 84.1991 113.1258 79.3001 114.2968 79.3001 116.4508 83.1391 116.4098 82.5231 116.4098 79.3001 117.3378 79.3001 117.3378 84.1991"></polygon>
                <polygon id="Fill-38" fill="#FFFFFF" mask="url(#mask-2)" points="118.8186 84.1991 118.8186 79.3001 121.8466 79.3001 121.8466 80.0351 119.7546 80.0351 119.7546 81.3861 121.6946 81.3861 121.6946 82.0931 119.7546 82.0931 119.7546 83.4581 122.0066 83.4581 122.0066 84.1991"></polygon>
                <path d="M124.7903,84.1991 L123.1693,84.1991 L123.1693,79.3001 L124.7493,79.3001 C126.3983,79.3001 127.5543,80.0271 127.5543,81.7321 C127.5543,83.4311 126.5083,84.1991 124.7903,84.1991 M124.7283,80.0431 L124.0973,80.0431 L124.0973,83.4581 L124.8663,83.4581 C126.0503,83.4581 126.6193,82.8901 126.6193,81.8011 C126.6193,80.6171 125.9603,80.0431 124.7283,80.0431" id="Fill-39" fill="#FFFFFF" mask="url(#mask-2)"></path>
                <polygon id="Fill-40" fill="#FFFFFF" mask="url(#mask-2)" points="128.7103 84.1991 128.7103 79.3001 131.7383 79.3001 131.7383 80.0351 129.6463 80.0351 129.6463 81.3861 131.5863 81.3861 131.5863 82.0931 129.6463 82.0931 129.6463 83.4581 131.8983 83.4581 131.8983 84.1991"></polygon>
                <path d="M137.2044,84.2836 C136.5184,84.2486 136.0334,83.8946 135.5344,83.2986 L134.8064,82.4256 C134.7034,82.4326 134.5984,82.4396 134.4884,82.4396 L134.0034,82.4396 L134.0034,84.1996 L133.0604,84.1996 L133.0604,79.3006 L134.8484,79.3006 C135.8944,79.3006 136.6164,79.7936 136.6164,80.8606 C136.6164,81.4346 136.3374,81.9266 135.7564,82.2046 L136.3584,82.8976 C136.6564,83.2376 137.0104,83.4446 137.4054,83.5486 L137.2044,84.2836 Z M134.6964,80.0426 L134.0034,80.0426 L134.0034,81.7536 L134.5294,81.7536 C135.2504,81.7536 135.6444,81.4766 135.6444,80.8876 C135.6444,80.2926 135.3814,80.0426 134.6964,80.0426 Z" id="Fill-41" fill="#FFFFFF" mask="url(#mask-2)"></path>
                <polygon id="Fill-42" fill="#FFFFFF" mask="url(#mask-2)" points="138.3113 84.1991 138.3113 79.3071 139.2463 79.3071 139.2463 83.4441 141.3733 83.4441 141.3733 84.1991"></polygon>
                <path d="M145.5579,84.1991 L145.0309,82.5981 L143.2359,82.5981 L142.6329,84.1991 L141.6979,84.1991 L143.5969,79.3001 L144.8649,79.3001 L146.5279,84.1991 L145.5579,84.1991 Z M144.4359,80.7351 L144.1919,79.8681 L143.9079,80.7351 L143.4929,81.9071 L144.8029,81.9071 L144.4359,80.7351 Z" id="Fill-43" fill="#FFFFFF" mask="url(#mask-2)"></path>
                <polygon id="Fill-44" fill="#FFFFFF" mask="url(#mask-2)" points="150.4275 84.1991 148.3275 80.4651 148.3625 81.0811 148.3625 84.1991 147.4265 84.1991 147.4265 79.3001 148.5985 79.3001 150.7525 83.1391 150.7105 82.5231 150.7105 79.3001 151.6395 79.3001 151.6395 84.1991"></polygon>
                <path d="M154.7425,84.1991 L153.1215,84.1991 L153.1215,79.3001 L154.7005,79.3001 C156.3495,79.3001 157.5065,80.0271 157.5065,81.7321 C157.5065,83.4311 156.4605,84.1991 154.7425,84.1991 M154.6805,80.0431 L154.0495,80.0431 L154.0495,83.4581 L154.8185,83.4581 C156.0035,83.4581 156.5715,82.8901 156.5715,81.8011 C156.5715,80.6171 155.9135,80.0431 154.6805,80.0431" id="Fill-45" fill="#FFFFFF" mask="url(#mask-2)"></path>
                <path d="M119.6395,37.6093 L119.6395,51.8453 L104.6885,38.1263 C104.0445,37.5403 103.1905,37.1843 102.2525,37.1843 L102.2525,37.1823 L90.1845,37.1823 C85.2305,37.1823 81.4905,40.0683 81.4905,44.3663 C81.4905,47.5823 83.5245,49.7783 86.7055,51.4493 L91.2315,53.8143 C92.0535,54.2383 93.1025,55.0933 93.1025,56.3403 C93.1025,58.2083 91.8555,58.9283 90.0845,58.9283 C87.6575,58.9283 85.4945,57.5513 83.9175,56.3403 L80.7365,60.6673 C84.0175,63.1933 87.2325,63.6543 89.7905,63.6543 C95.8915,63.6543 98.9095,60.3733 98.9095,56.0103 C98.9095,52.3363 96.0555,50.2363 93.0045,48.7293 L89.4615,46.9563 C88.1175,46.2683 87.2325,45.6783 87.2325,44.1363 C87.2325,42.5943 88.4775,41.8083 90.1845,41.8083 L99.7215,41.8083 L99.7215,41.8093 C101.6985,41.8093 103.3055,43.3973 103.3365,45.3673 L103.3365,63.3903 L109.1435,63.3903 L109.1435,48.9593 L125.4135,63.7083 L125.4135,37.6093 L119.6395,37.6093 Z" id="Fill-46" fill="#FFFFFF" mask="url(#mask-2)"></path>
                <path d="M149.9495,37.6122 L149.9505,37.6092 L146.8905,37.6092 L146.8905,51.8452 L130.5865,37.1912 L130.5865,63.3902 L136.3915,63.3902 L136.3915,48.9582 L152.6625,63.7082 L152.6625,40.3122 C152.6565,38.8192 151.4445,37.6122 149.9495,37.6122" id="Fill-47" fill="#FFFFFF" mask="url(#mask-2)"></path>
                <path d="M37.3978,9.2953 C37.3978,10.8973 36.0938,12.1923 34.4978,12.1923 C32.8958,12.1923 31.5968,10.8973 31.5968,9.2953 C31.5968,7.6943 32.8958,6.3973 34.4978,6.3973 C36.0938,6.3973 37.3978,7.6943 37.3978,9.2953" id="Fill-48" fill="#E63329" mask="url(#mask-2)"></path>
                <path d="M44.3382,5.3344 C44.3382,6.7924 43.1512,7.9774 41.6942,7.9774 C40.2312,7.9774 39.0502,6.7924 39.0502,5.3344 C39.0502,3.8674 40.2312,2.6904 41.6942,2.6904 C43.1512,2.6904 44.3382,3.8674 44.3382,5.3344" id="Fill-49" fill="#E63329" mask="url(#mask-2)"></path>
                <path d="M52.2024,3.287 C52.2024,4.529 51.1964,5.539 49.9564,5.539 C48.7094,5.539 47.7044,4.529 47.7044,3.287 C47.7044,2.042 48.7094,1.032 49.9564,1.032 C51.1964,1.032 52.2024,2.042 52.2024,3.287" id="Fill-50" fill="#E63329" mask="url(#mask-2)"></path>
                <path d="M60.4583,2.0829 C60.4583,3.2449 59.5263,4.1699 58.3693,4.1699 C57.2183,4.1699 56.2863,3.2449 56.2863,2.0829 C56.2863,0.9369 57.2183,-0.0001 58.3693,-0.0001 C59.5263,-0.0001 60.4583,0.9369 60.4583,2.0829" id="Fill-51" fill="#E63329" mask="url(#mask-2)"></path>
                <path d="M58.0379,29.5595 C55.3329,30.3445 53.0369,32.0925 51.5489,34.4085 C51.3369,31.9485 49.2739,30.0135 46.7569,30.0135 C44.1009,30.0135 41.9449,32.1705 41.9449,34.8255 C41.9449,35.6555 42.1559,36.4365 42.5269,37.1195 C41.8889,36.9495 41.2199,36.8575 40.5299,36.8575 C39.3379,36.8575 38.2089,37.1265 37.1999,37.6075 C36.6399,36.3735 35.7679,35.3105 34.6849,34.5205 C36.5029,33.3585 37.7089,31.3215 37.7089,29.0045 C37.7089,25.4005 34.7829,22.4765 31.1749,22.4765 C27.5709,22.4765 24.6449,25.4005 24.6449,29.0045 C24.6449,30.8925 25.4469,32.5945 26.7269,33.7895 C24.1069,35.0475 22.2989,37.7265 22.2989,40.8235 C22.2989,42.0755 22.5939,43.2575 23.1179,44.3045 C17.1829,46.0055 12.8429,51.4695 12.8429,57.9465 C12.8429,59.3945 13.0599,60.7925 13.4629,62.1095 C12.3419,61.6645 11.1189,61.4205 9.8389,61.4205 C4.4059,61.4205 -0.0001,65.8205 -0.0001,71.2535 C-0.0001,76.6955 4.4059,81.0935 9.8389,81.0935 C15.2739,81.0935 19.6749,76.6955 19.6749,71.2535 C19.6749,70.8435 19.6489,70.4385 19.6009,70.0405 C21.7629,71.3735 24.3099,72.1435 27.0369,72.1435 C28.3529,72.1435 29.6259,71.9645 30.8339,71.6295 C33.4129,74.3995 37.0919,76.1315 41.1729,76.1315 C42.4879,76.1315 43.7599,75.9515 44.9669,75.6165 C44.8879,76.0755 44.8469,76.5495 44.8469,77.0305 C44.8469,79.8615 46.2699,82.3645 48.4419,83.8595 C46.5889,84.7495 45.3089,86.6455 45.3089,88.8445 C45.3089,91.8945 47.7839,94.3675 50.8359,94.3675 C53.8879,94.3675 56.3649,91.8945 56.3649,88.8445 C56.3649,87.4105 55.8199,86.1055 54.9269,85.1245 C58.6479,84.3075 61.4319,80.9905 61.4319,77.0305 C61.4319,72.6015 57.9619,68.9805 53.5919,68.7465 C54.1749,67.6725 54.6229,66.5165 54.9139,65.2995 C54.9899,65.3005 55.0669,65.3025 55.1429,65.3025 C60.8659,65.3025 65.5039,60.6645 65.5039,54.9385 C65.5039,53.7575 65.3049,52.6225 64.9409,51.5645 C69.5009,50.0265 72.7849,45.7115 72.7849,40.6335 C72.7849,38.7745 72.3439,37.0175 71.5619,35.4615 C70.4329,35.8625 69.2179,36.0805 67.9509,36.0805 C63.5099,36.0805 59.6939,33.3945 58.0379,29.5595 M47.5639,47.8765 C48.0259,46.8845 48.2849,45.7795 48.2849,44.6145 C48.2849,42.7155 47.6009,40.9765 46.4679,39.6285 C46.5629,39.6345 46.6599,39.6375 46.7569,39.6375 C47.9759,39.6375 49.0879,39.1835 49.9359,38.4365 C49.7979,39.1475 49.7249,39.8825 49.7249,40.6335 C49.7249,42.3835 50.1159,44.0415 50.8129,45.5265 C49.5799,46.0935 48.4789,46.8965 47.5639,47.8765" id="Fill-52" fill="#FFFFFF" mask="url(#mask-2)"></path>
                <path d="M30.7586,20.1205 C32.6546,20.1205 34.1856,18.5815 34.1856,16.6915 C34.1856,14.7975 32.6546,13.2655 30.7586,13.2655 C28.8606,13.2655 27.3286,14.7975 27.3286,16.6915 C27.3286,18.5815 28.8606,20.1205 30.7586,20.1205" id="Fill-53" fill="#FFFFFF" mask="url(#mask-2)"></path>
                <path d="M61.555,16.5951 C60.904,17.0741 60.308,17.6251 59.781,18.2371 C60.352,18.9761 61.026,19.6331 61.781,20.1851 C61.827,19.8001 61.851,19.4081 61.851,19.0091 C61.851,18.1761 61.748,17.3681 61.555,16.5951" id="Fill-54" fill="#26247B" mask="url(#mask-2)"></path>
                <path d="M59.7811,18.2367 C58.1471,20.1277 57.1581,22.5927 57.1581,25.2927 C57.1581,25.9877 57.2251,26.6657 57.3511,27.3237 C59.7511,25.7547 61.4291,23.1717 61.7811,20.1847 C61.0261,19.6337 60.3531,18.9767 59.7811,18.2367" id="Fill-55" fill="#2E3192" mask="url(#mask-2)"></path>
                <path d="M67.951,14.4955 C65.557,14.4955 63.345,15.2755 61.555,16.5955 C61.748,17.3685 61.851,18.1765 61.851,19.0095 C61.851,19.4085 61.827,19.8005 61.781,20.1855 C63.423,21.3875 65.448,22.0975 67.638,22.0975 C71.006,22.0975 73.982,20.4195 75.777,17.8555 C73.811,15.7855 71.032,14.4955 67.951,14.4955" id="Fill-56" fill="#005FA8" mask="url(#mask-2)"></path>
                <path d="M57.7845,10.9926 C57.7385,11.3816 57.7145,11.7756 57.7145,12.1776 C57.7145,14.4586 58.4855,16.5606 59.7805,18.2366 C60.3085,17.6246 60.9045,17.0746 61.5545,16.5956 C60.9855,14.3116 59.6265,12.3426 57.7845,10.9926" id="Fill-57" fill="#D2232A" mask="url(#mask-2)"></path>
                <path d="M51.9324,9.082 C46.4474,9.082 42.0064,13.526 42.0064,19.009 C42.0064,24.489 46.4474,28.935 51.9324,28.935 C53.9324,28.935 55.7934,28.343 57.3504,27.324 C57.2244,26.665 57.1584,25.988 57.1584,25.293 C57.1584,22.593 58.1464,20.128 59.7804,18.237 C58.4854,16.561 57.7144,14.459 57.7144,12.177 C57.7144,11.776 57.7384,11.382 57.7844,10.993 C56.1444,9.791 54.1214,9.082 51.9324,9.082" id="Fill-58" fill="#E63329" mask="url(#mask-2)"></path>
                <path d="M67.6385,2.247 C62.5575,2.247 58.3695,6.067 57.7845,10.993 C59.6265,12.343 60.9855,14.312 61.5555,16.596 C63.3455,15.276 65.5575,14.495 67.9515,14.495 C71.0325,14.495 73.8105,15.785 75.7775,17.855 C76.9035,16.247 77.5635,14.289 77.5635,12.177 C77.5635,6.694 73.1185,2.247 67.6385,2.247" id="Fill-59" fill="#F39200" mask="url(#mask-2)"></path>
                <path d="M75.7771,17.8549 C73.9821,20.4199 71.0061,22.0969 67.6381,22.0969 C65.4481,22.0969 63.4231,21.3879 61.7811,20.1849 C61.4291,23.1719 59.7511,25.7549 57.3511,27.3239 C58.3031,32.3069 62.6891,36.0799 67.9511,36.0799 C73.9131,36.0799 78.7431,31.2459 78.7431,25.2929 C78.7431,22.4079 77.6151,19.7909 75.7771,17.8549" id="Fill-60" fill="#0080C9" mask="url(#mask-2)"></path>
            </g>
        </g>
    </g>
</svg>